<svg xmlns="http://www.w3.org/2000/svg" viewBox="0 0 800 600">
  <title>Illustration of a cluttered, dirty garage</title>
  <defs>
    <linearGradient id="dim" x1="0" y1="0" x2="0" y2="1">
      <stop offset="0" stop-color="#1b1408" stop-opacity=".08"/>
      <stop offset="1" stop-color="#1b1408" stop-opacity=".3"/>
    </linearGradient>
    <radialGradient id="bulb" cx="50%" cy="0%" r="60%">
      <stop offset="0" stop-color="#ffe9a8" stop-opacity=".35"/>
      <stop offset="1" stop-color="#ffe9a8" stop-opacity="0"/>
    </radialGradient>
    <pattern id="grit" width="18" height="14" patternUnits="userSpaceOnUse">
      <circle cx="3" cy="4" r="1" fill="#5d574d" opacity=".5"/>
      <circle cx="12" cy="10" r=".8" fill="#5d574d" opacity=".4"/>
    </pattern>
  </defs>

  <!-- room -->
  <rect x="110" y="40" width="580" height="360" fill="#b5a88f"/>
  <polygon points="0,0 800,0 690,40 110,40" fill="#857c6b"/>
  <polygon points="0,0 110,40 110,400 0,600" fill="#998e78"/>
  <polygon points="800,0 690,40 690,400 800,600" fill="#a09580"/>
  <polygon points="110,400 690,400 800,600 0,600" fill="#7a746a"/>
  <polygon points="110,400 690,400 800,600 0,600" fill="url(#grit)"/>
  <rect x="110" y="386" width="580" height="14" fill="#6c6456" opacity=".6"/>

  <!-- ceiling beams + exposed wiring -->
  <g stroke="#6f6758" stroke-width="3" opacity=".6">
    <path d="M40 15L150 44M760 15L650 44M250 0L270 40M530 0L515 40"/>
  </g>
  <path d="M470 40q20 18 44 6t40 10" fill="none" stroke="#2d2a24" stroke-width="2"/>

  <!-- wall grime, water stains, peeling paint -->
  <g fill="#86795f">
    <ellipse cx="235" cy="105" rx="75" ry="24" opacity=".35"/>
    <ellipse cx="455" cy="330" rx="70" ry="36" opacity=".3"/>
    <ellipse cx="45" cy="300" rx="30" ry="70" opacity=".3"/>
    <ellipse cx="755" cy="260" rx="26" ry="60" opacity=".3"/>
    <ellipse cx="600" cy="250" rx="40" ry="18" opacity=".25"/>
  </g>
  <path d="M430 40v70M445 40v110M458 40v55" stroke="#86795f" stroke-width="7" stroke-linecap="round" opacity=".35"/>
  <path d="M540 185q-3 30 2 60M600 185q2 22-2 44" stroke="#8a5a36" stroke-width="5" stroke-linecap="round" opacity=".35"/>
  <g opacity=".9">
    <path d="M330 70l18-6 6 14-12 8-15-3z" fill="#cdc1a8"/>
    <path d="M660 320l14-4 3 12-10 5z" fill="#cdc1a8"/>
  </g>
  <path d="M600 60l-8 22 6 10-5 18" fill="none" stroke="#6f6758" stroke-width="1.5" opacity=".7"/>

  <!-- cobwebs -->
  <g fill="none" stroke="#efeae0" stroke-width="1.5" opacity=".75">
    <path d="M110 40h72M110 40v72M110 40l58 58M110 40l30 66M110 40l66 30"/>
    <path d="M136 40q-4 18-26 22M160 40q-8 38-50 46M182 40q-12 58-72 70"/>
    <path d="M690 40h-62M690 40v62M690 40l-48 50M690 40l-24 58"/>
    <path d="M668 40q4 16 22 18M646 40q6 36 44 40"/>
    <path d="M110 400v-40M110 400l30-30M110 400l38-10M110 380q12 4 18 20"/>
  </g>
  <circle cx="150" cy="75" r="3" fill="#2d2a24"/>

  <!-- dim light with pull cord -->
  <ellipse cx="400" cy="40" rx="200" ry="140" fill="url(#bulb)"/>
  <rect x="340" y="40" width="120" height="10" rx="3" fill="#57513f"/>
  <rect x="352" y="50" width="42" height="7" rx="3.5" fill="#cdc39a" opacity=".55"/>
  <rect x="400" y="50" width="48" height="7" rx="3.5" fill="#6f6758"/>
  <path d="M420 57v40" stroke="#d6d0c0" stroke-width="1.5"/>
  <circle cx="420" cy="99" r="3" fill="#d6d0c0"/>

  <!-- dirty window -->
  <rect x="520" y="95" width="130" height="90" fill="#5a5448"/>
  <rect x="526" y="101" width="118" height="78" fill="#7e8476"/>
  <path d="M585 101v78M526 140h118" stroke="#5a5448" stroke-width="5"/>
  <g fill="#666b5f" opacity=".7">
    <ellipse cx="556" cy="163" rx="26" ry="11"/>
    <ellipse cx="620" cy="118" rx="18" ry="8"/>
    <ellipse cx="612" cy="165" rx="14" ry="6"/>
  </g>
  <path d="M600 104l24 20M608 104l8 30M632 110l-10 16" stroke="#4f4b42" stroke-width="1.5" fill="none"/>
  <rect x="528" y="150" width="30" height="26" fill="#a39f8f" opacity=".6" transform="rotate(-8 543 163)"/>

  <!-- rake and shovel leaning on left wall -->
  <path d="M60 470L92 190" stroke="#8a6a3c" stroke-width="5" stroke-linecap="round"/>
  <path d="M74 186h38M78 186v14M86 186v14M94 186v14M102 186v14M110 186v14" stroke="#555" stroke-width="3" stroke-linecap="round"/>
  <path d="M30 480L50 250" stroke="#8a6a3c" stroke-width="5" stroke-linecap="round"/>
  <path d="M40 250q10-26 22 0l-4 20h-14z" fill="#6b7280"/>

  <!-- sagging wooden shelf -->
  <g fill="#5d4b35">
    <rect x="140" y="150" width="7" height="250"/>
    <rect x="320" y="150" width="7" height="250"/>
  </g>
  <g fill="#6e5940">
    <path d="M140 205q93 18 187 0v8q-94 18-187 0z"/>
    <path d="M140 285q93 15 187 0v8q-94 15-187 0z"/>
    <path d="M140 360q93 12 187 0v8q-94 12-187 0z"/>
  </g>
  <g transform="rotate(-7 182 183)">
    <rect x="152" y="158" width="60" height="50" fill="#b98b55"/>
    <rect x="178" y="158" width="8" height="50" fill="#dcc28c"/>
    <text x="158" y="198" font-family="sans-serif" font-size="9" font-weight="700" fill="#6b4a25">MISC</text>
  </g>
  <rect x="218" y="172" width="44" height="42" fill="#a6773f" transform="rotate(9 240 193)"/>
  <rect x="268" y="176" width="26" height="36" rx="3" fill="#6f7f8c"/>
  <rect x="266" y="172" width="30" height="6" rx="2" fill="#56636e"/>
  <rect x="296" y="164" width="22" height="46" fill="#c7b078" transform="rotate(14 307 187)"/>
  <path d="M150 158q20-14 40-2" stroke="#d97706" stroke-width="3" fill="none"/>
  <rect x="152" y="250" width="82" height="42" fill="#b98b55" transform="rotate(3 193 271)"/>
  <rect x="240" y="262" width="22" height="30" rx="2" fill="#7c8a58"/>
  <path d="M240 266h22" stroke="#5f6b42" stroke-width="3"/>
  <rect x="266" y="256" width="22" height="36" rx="2" fill="#8b5b49"/>
  <path d="M292 293l22-44 9 4-20 42z" fill="#4a4a4a"/>
  <path d="M250 294q2 14-2 26M276 294q3 10 0 18" stroke="#8b5b49" stroke-width="3" fill="none" opacity=".7"/>
  <rect x="158" y="318" width="56" height="46" fill="#a6773f" transform="rotate(-11 186 341)"/>
  <g transform="rotate(5 258 348)">
    <rect x="222" y="330" width="72" height="36" fill="#b98b55"/>
    <rect x="252" y="330" width="9" height="36" fill="#dcc28c"/>
  </g>
  <path d="M300 368q6 18 -4 28" stroke="#6b7280" stroke-width="3" fill="none"/>

  <!-- messy pegboard with tangled extension cord -->
  <rect x="365" y="110" width="130" height="115" fill="#a2895f"/>
  <path d="M398 132l-8 60" stroke="#6d4f2a" stroke-width="7" stroke-linecap="round"/>
  <rect x="384" y="122" width="28" height="11" rx="2" fill="#474747" transform="rotate(-8 398 127)"/>
  <path d="M452 140l26 48" stroke="#6e6e6e" stroke-width="8" stroke-linecap="round"/>
  <circle cx="452" cy="140" r="9" fill="#6e6e6e"/>
  <path d="M420 120c-30 20 30 30 0 50s40 20 10 45c-12 10 20 20 30 5s-40-10-20-30 30-10 10-30" fill="none" stroke="#ea580c" stroke-width="4" stroke-linecap="round"/>
  <path d="M372 225l6 20" stroke="#ea580c" stroke-width="4" stroke-linecap="round"/>

  <!-- old CRT TV and cooler against back wall -->
  <rect x="612" y="332" width="66" height="56" rx="5" fill="#4b4741"/>
  <rect x="620" y="340" width="44" height="38" rx="6" fill="#2c2a27"/>
  <path d="M626 346l12 8" stroke="#5c5850" stroke-width="3"/>
  <circle cx="671" cy="350" r="2.5" fill="#8a8479"/>
  <circle cx="671" cy="362" r="2.5" fill="#8a8479"/>
  <rect x="412" y="352" width="70" height="42" rx="4" fill="#b91c1c"/>
  <rect x="408" y="344" width="78" height="12" rx="4" fill="#e5e1d8"/>
  <path d="M428 344v-6h40v6" fill="none" stroke="#e5e1d8" stroke-width="4"/>

  <!-- broom leaning -->
  <path d="M512 398l26-150" stroke="#86673a" stroke-width="5" stroke-linecap="round"/>
  <path d="M498 400h28l-6-30h-14z" fill="#b89440"/>

  <!-- floor cracks, oil stains, spills -->
  <path d="M150 600l40-60 30-10 20-40M620 600l-20-40 18-30M360 470l-40 20-10 30" fill="none" stroke="#4a453d" stroke-width="2" opacity=".7"/>
  <g fill="#3b362e">
    <ellipse cx="420" cy="585" rx="90" ry="14" opacity=".5"/>
    <ellipse cx="600" cy="430" rx="46" ry="9" opacity=".45"/>
    <ellipse cx="190" cy="592" rx="60" ry="9" opacity=".4"/>
    <ellipse cx="300" cy="440" rx="34" ry="7" opacity=".35"/>
    <ellipse cx="700" cy="470" rx="30" ry="6" opacity=".4"/>
  </g>
  <path d="M570 596c10-8 30-10 50-4s36 2 40 8z" fill="#d97706" opacity=".8"/>
  <path d="M240 460l6 4M260 452l-4 6M480 440l6-2" stroke="#4a453d" stroke-width="3" stroke-linecap="round"/>

  <!-- left box stack -->
  <rect x="18" y="455" width="142" height="112" fill="#bd8d56"/>
  <rect x="18" y="455" width="142" height="12" fill="#cf9f68"/>
  <rect x="83" y="455" width="12" height="112" fill="#e0c68f" opacity=".85"/>
  <path d="M30 520l30 12M110 500l40-8" stroke="#8f6232" stroke-width="2" opacity=".6"/>
  <text x="104" y="545" font-family="sans-serif" font-size="11" font-weight="700" fill="#7a5227">XMAS</text>
  <g transform="rotate(-5 97 421)">
    <rect x="38" y="385" width="118" height="72" fill="#b0804a"/>
    <rect x="91" y="385" width="11" height="72" fill="#e0c68f" opacity=".85"/>
    <text x="46" y="440" font-family="sans-serif" font-size="10" font-weight="700" fill="#6b4a25">OLD STUFF</text>
  </g>
  <g transform="rotate(5 100 360)">
    <path d="M88 330l-18-62" stroke="#6b7280" stroke-width="6" stroke-linecap="round"/>
    <path d="M112 332l12-48" stroke="#9a3412" stroke-width="5" stroke-linecap="round"/>
    <circle cx="124" cy="282" r="8" fill="none" stroke="#9a3412" stroke-width="4"/>
    <rect x="58" y="336" width="84" height="52" fill="#c49660"/>
    <path d="M58 336l-14-18h40l10 18zM142 336l14-18h-40l-10 18z" fill="#d7ac75"/>
  </g>

  <!-- basketball and knocked-over trash can -->
  <circle cx="200" cy="530" r="18" fill="#c2410c"/>
  <path d="M182 530h36M200 512v36M188 516q10 14 0 28M212 516q-10 14 0 28" stroke="#431407" stroke-width="1.5" fill="none"/>
  <g transform="rotate(-80 190 586)">
    <rect x="166" y="556" width="48" height="62" rx="4" fill="#6b7280"/>
    <rect x="162" y="552" width="56" height="8" rx="3" fill="#4b5563"/>
    <path d="M178 566v44M190 566v44M202 566v44" stroke="#4b5563" stroke-width="2"/>
  </g>
  <g fill="#e7e2d6">
    <rect x="226" y="584" width="14" height="10" transform="rotate(15 233 589)"/>
    <rect x="246" y="590" width="12" height="8" transform="rotate(-20 252 594)"/>
    <circle cx="222" cy="575" r="4" fill="#7c8a58"/>
  </g>

  <!-- center pile -->
  <rect x="232" y="472" width="150" height="100" fill="#b98b55"/>
  <rect x="232" y="472" width="150" height="11" fill="#cb9c66"/>
  <rect x="300" y="472" width="12" height="100" fill="#e0c68f" opacity=".85"/>
  <path d="M240 540l24 20M360 490l14 30" stroke="#8f6232" stroke-width="2" opacity=".6"/>
  <text x="318" y="530" font-family="sans-serif" font-size="11" font-weight="700" fill="#7a5227">GARAGE</text>
  <g transform="rotate(7 300 447)">
    <rect x="250" y="420" width="100" height="56" fill="#c49660"/>
    <rect x="295" y="420" width="10" height="56" fill="#e0c68f" opacity=".85"/>
  </g>
  <g transform="rotate(-18 330 405)">
    <rect x="296" y="392" width="70" height="22" rx="3" fill="#15803d" opacity=".85"/>
    <rect x="292" y="388" width="78" height="8" rx="3" fill="#166534"/>
  </g>

  <!-- trash bags -->
  <path d="M404 578c-22 0-32-20-27-43 5-25 24-41 46-41 6-9 19-9 24 0 25 5 37 26 35 48-2 23-17 36-36 36z" fill="#25272a"/>
  <path d="M426 512c11-2 21 5 25 15" fill="none" stroke="#474b52" stroke-width="4" stroke-linecap="round"/>
  <path d="M445 494l-6-12m12 12l6-12" stroke="#25272a" stroke-width="5" stroke-linecap="round"/>
  <path d="M466 560c-16 0-22-14-18-28 4-14 16-20 28-18 14 3 20 16 16 30-3 11-12 16-26 16z" fill="#1a1c1f"/>

  <!-- tire and garden hose -->
  <circle cx="532" cy="556" r="37" fill="#1f1f1f"/>
  <circle cx="532" cy="556" r="27" fill="none" stroke="#2e2e2e" stroke-width="4" stroke-dasharray="6 5"/>
  <circle cx="532" cy="556" r="17" fill="#77716a"/>
  <g fill="none" stroke="#15803d" stroke-width="4">
    <ellipse cx="548" cy="478" rx="30" ry="9"/>
    <ellipse cx="548" cy="474" rx="24" ry="7"/>
    <path d="M578 478q20 10 10 30t18 20"/>
  </g>

  <!-- paint cans -->
  <rect x="578" y="552" width="40" height="42" fill="#8d99a5"/>
  <ellipse cx="598" cy="552" rx="20" ry="6" fill="#aeb8c2"/>
  <path d="M584 556q3 16 0 30" stroke="#d97706" stroke-width="5" fill="none" stroke-linecap="round"/>
  <rect x="610" y="566" width="30" height="30" fill="#a5a07a"/>
  <ellipse cx="625" cy="566" rx="15" ry="5" fill="#c2bd95"/>
  <rect x="598" y="530" width="26" height="24" fill="#7c8a58" transform="rotate(-12 611 542)"/>

  <!-- bike leaning -->
  <g transform="rotate(-10 700 500)" fill="none" stroke="#2e3943" stroke-width="6" stroke-linecap="round" stroke-linejoin="round">
    <circle cx="650" cy="505" r="42"/>
    <circle cx="760" cy="505" r="42"/>
    <path d="M650 505l40-52h52l18 52M690 453l16 52h-56M706 505l36-52M690 453l-2-11M680 442h20M742 453l-6-22h16"/>
  </g>

  <!-- scattered debris -->
  <g fill="#5d574d">
    <rect x="455" y="455" width="10" height="5" transform="rotate(-15 460 457)"/>
    <circle cx="470" cy="598" r="3"/>
    <circle cx="690" cy="585" r="3"/>
    <circle cx="360" cy="590" r="2.5"/>
    <circle cx="560" cy="440" r="2.5"/>
    <rect x="130" y="420" width="16" height="5" rx="1" fill="#8a6a3c" transform="rotate(30 138 422)"/>
  </g>

  <!-- dust in the air -->
  <g fill="#f5efe0" opacity=".35">
    <circle cx="300" cy="120" r="2"/>
    <circle cx="360" cy="160" r="1.5"/>
    <circle cx="480" cy="90" r="2"/>
    <circle cx="520" cy="230" r="1.5"/>
    <circle cx="250" cy="240" r="1.5"/>
    <circle cx="420" cy="270" r="2"/>
  </g>

  <rect width="800" height="600" fill="url(#dim)"/>
</svg>
